<svg xmlns="http://www.w3.org/2000/svg" viewBox="0 0 1600 900" role="img" aria-label="Creative studio workspace">
  <defs>
    <linearGradient id="wall" x1="0%" y1="0%" x2="100%" y2="100%">
      <stop offset="0%" stop-color="#ecfdf5"/>
      <stop offset="100%" stop-color="#ccfbf1"/>
    </linearGradient>
    <linearGradient id="accent" x1="0%" y1="100%" x2="100%" y2="0%">
      <stop offset="0%" stop-color="#0d9488"/>
      <stop offset="100%" stop-color="#f59e0b"/>
    </linearGradient>
  </defs>
  <rect width="1600" height="900" fill="url(#wall)"/>
  <rect x="0" y="620" width="1600" height="280" fill="#134e4a" opacity="0.12"/>
  <rect x="140" y="180" width="520" height="360" rx="24" fill="#ffffff" stroke="#99f6e4" stroke-width="4"/>
  <rect x="190" y="240" width="180" height="120" rx="12" fill="url(#accent)" opacity="0.85"/>
  <rect x="400" y="260" width="220" height="16" rx="8" fill="#115e59" opacity="0.25"/>
  <rect x="400" y="300" width="180" height="16" rx="8" fill="#115e59" opacity="0.18"/>
  <rect x="400" y="340" width="140" height="16" rx="8" fill="#115e59" opacity="0.18"/>
  <rect x="760" y="120" width="700" height="520" rx="28" fill="#ffffff" stroke="#5eead4" stroke-width="4"/>
  <rect x="820" y="180" width="580" height="320" rx="16" fill="#f0fdfa"/>
  <circle cx="980" cy="300" r="64" fill="#0d9488" opacity="0.25"/>
  <rect x="1080" y="250" width="260" height="100" rx="14" fill="#fbbf24" opacity="0.55"/>
  <rect x="860" y="540" width="500" height="56" rx="28" fill="#0d9488" opacity="0.18"/>
</svg>
